<?xml version="1.0" encoding="UTF-8"?>
<svg id="Layer_1" data-name="Layer 1" xmlns="http://www.w3.org/2000/svg" viewBox="0 0 424.084 463.398">
  <defs>
    <style>
      .cls-1 {
        fill: #ff5a01;
      }
    </style>
  </defs>
  <g>
    <path class="cls-1" d="M313.126.242c4.693-.415,9.452-.314,14.111.437,3.907.677,7.653,2.065,11.286,3.632,1.436.345,2.934.048,4.401.175,7.619.598,14.731,4.056,20.782,8.583,7.029,5.484,12.941,12.997,14.931,21.825.258.825,1.131,1.157,1.764,1.65,5.444,3.663,9.273,9.439,11.006,15.73,1.572,6.658,1.493,13.866-1.148,20.249-1.703,3.707-4.065,7.309-7.584,9.505-.982.659-2.279.891-3.091,1.755-.878,5.785-3.2,11.487-7.435,15.63-5.226,5.641-12.888,8.732-20.537,8.771-7.348.227-14.652-2.292-20.52-6.68-2.432-1.773-5.484-3.99-5.187-7.391.031-2.978,3.257-5.191,6.069-4.296,2.384.432,3.728,2.602,5.492,4.025,7.147,5.811,18.18,6.208,25.776,1.039,4.004-2.803,6.601-7.357,7.365-12.146.45-4.807-1.078-9.732-4.13-13.469-3.488-4.737-9.531-7.182-15.324-6.903-1.24.004-2.532.175-3.711-.293-1.873-.633-3.231-2.589-3.047-4.58-.1-2.292,1.991-3.947,4.065-4.362,4.541-.812,9.247-.188,13.552,1.415,8.238,3.453,14.626,10.906,16.796,19.572,6.069-7.191,6.444-18.673.633-26.13-4.545-5.916-11.618-9.871-19.066-10.496-3.34-.087-6.745-.175-9.998.712-6.754,1.681-12.631,5.584-18.363,9.378-5.274,3.606-11.591,5.484-17.935,5.855-5.257.31-10.696,1.244-15.18,4.165-3.039,2.183-5.719,5.099-6.981,8.675-1.401,4.148-.886,8.998,1.751,12.556,2.51,3.536,6.959,5.344,11.225,5.182,5.794.24,11.037-2.62,15.957-5.322,4.768-2.895,9.911-5.383,15.473-6.239,6.654-.969,13.687-.572,19.878,2.231,1.532.851,3.414,1.869,3.676,3.798.62,3.017-2.558,5.964-5.51,5.222-4.209-1.074-8.383-2.785-12.805-2.55-2.371-.079-4.754.044-7.042.712-7.793,1.991-13.857,7.758-21.406,10.334-6.047,1.93-12.919,1.925-18.616-1.096-5.894-2.82-10.164-8.496-11.722-14.792-1.943-.288-3.907-.061-5.859-.227-7.33-.79-14.473-4.069-19.433-9.601-9.046-9.439-9.561-25.087-2.593-35.857,3.842-6.069,9.858-10.819,16.743-12.932,1.62-.559,3.51-.559,4.925-1.602,10.072-8.989,23.021-15.001,36.569-15.853ZM286.891,18.623c3.109,1.484,6.392,2.764,9.046,5.021,1.642,1.419,3.196,2.973,4.405,4.781,1.013,1.567,1.794,3.567.912,5.374-.978,2.777-4.916,3.497-7.068,1.677-1.781-1.458-2.729-3.659-4.41-5.213-3.148-3.336-7.867-5.047-12.421-4.575-6.064.651-11.543,4.501-14.687,9.666-4.872,7.435-4.759,18.009.965,24.969,4.322,5.335,11.474,7.723,18.193,7.4.729-5.161,3.117-10.125,6.999-13.648,6.007-5.824,14.338-8.693,22.55-9.43,4.335-.336,8.767-.912,12.67-2.96,3.864-1.768,7.095-4.584,10.793-6.645,6.71-4.086,14.512-6.684,22.432-6.453,3.694-.087,7.304.803,10.893,1.58-2.96-5.064-7.405-9.182-12.294-12.36-5.051-3.165-11.133-5.038-17.11-4.113-7.518,1.244-14.556,5.959-18.158,12.731-1.196,1.938-.912,4.545-2.576,6.217-1.227,1.227-3.078,1.266-4.685,1.022-2.266-.563-3.689-3.082-3.117-5.322.371-2.868,1.458-5.597,2.956-8.059,3.222-5.056,7.902-9.16,13.285-11.788-2.393-.083-4.759-.524-7.156-.428-11.565.109-22.96,3.929-32.417,10.557Z"/>
    <path class="cls-1" d="M133.744,6.066c3.475-.437,6.985-.345,10.474-.602,5.676.31,11.399.127,17.031,1.07,11.456,1.397,22.681,4.619,33.146,9.483,8.444,3.912,16.538,8.636,23.855,14.399-.406,2.82-1.498,5.484-1.86,8.313-2.061,11.369-.974,23.515,4.231,33.932,3.458,7.06,8.824,13.115,15.198,17.691,7.863,5.601,17.285,8.841,26.855,9.828.733,1.856.934,3.851,1.319,5.798,1.72,9.343,2.432,18.913,1.476,28.387-1.463,16.8-7.291,33.102-16.198,47.383-4.619,7.387-10.352,14.01-16.516,20.144-11.395,10.906-25.095,19.42-39.979,24.676-24.729,8.854-52.347,9.749-77.447,1.834-15.826-4.759-30.457-13.189-42.926-23.991-14.569-12.674-26.243-28.793-33.133-46.872-5.139-13.499-7.806-27.972-7.623-42.424.223-18.429,5.34-36.822,14.997-52.548,11.657-19.079,28.824-34.582,48.575-44.956,12.05-6.016,25.082-10.273,38.525-11.543ZM98.62,55.947c-13.892,10.784-23.812,26.645-27.143,43.943-2.82,14.936-1.541,30.566,3.152,44.991,5.073,15.289,14.678,29.195,27.758,38.699,13.085,9.116,28.924,14.351,44.899,14.394,16.363.31,32.771-4.663,46.287-13.879,12.875-8.915,23.122-21.934,27.641-37.027,3.178-9.588,3.838-19.799,3.545-29.837-4.143-1.17-8.164-2.742-11.976-4.741-8.601-4.619-16.446-10.862-22.244-18.773-8.169-10.897-12.107-24.886-10.775-38.433.004-2.179.895-4.235,1-6.392-8.828-4.737-18.725-7.287-28.64-8.426-18.944-2.017-38.507,3.777-53.504,15.482Z"/>
    <path class="cls-1" d="M318.644,118.951c2.528-.397,5.086-.341,7.623-.057,8.413,1.336,15.22,9.077,15.416,17.616.074,26.475.004,52.954.035,79.433.17,5.51-2.349,11.059-6.675,14.499-3.589,3.113-8.426,4.488-13.124,4.244-7.754.188-15.18-5.178-17.595-12.513-.677-1.838-1.065-3.79-1.022-5.75-.004-26.353.009-52.705-.004-79.054-.192-8.78,6.754-16.892,15.346-18.42Z"/>
  </g>
  <g>
    <path d="M50.295,265.892l11.234,5.25c-4.131,6.161-8.925,11.918-14.385,17.272-5.46,5.355-11.306,10.203-17.535,14.543-6.23,4.341-12.67,8.121-19.319,11.34-.911-1.68-2.171-3.5-3.78-5.46-1.611-1.959-3.221-3.639-4.83-5.04,6.3-2.589,12.495-5.791,18.585-9.607,6.09-3.814,11.742-8.119,16.958-12.915,5.214-4.794,9.571-9.923,13.072-15.383ZM7.979,351.782h89.775v11.236H7.979v-11.236ZM20.37,304.847h64.68v11.13H20.37v-11.13ZM21.84,328.157h62.265v10.921H21.84v-10.921ZM55.965,269.882c6.649,7.841,13.947,14.474,21.893,19.897,7.943,5.426,16.537,10.169,25.777,14.228-1.611,1.401-3.221,3.098-4.83,5.093-1.611,1.995-2.835,3.902-3.675,5.723-6.3-3.36-12.303-6.931-18.008-10.711-5.706-3.779-11.147-8.032-16.327-12.757-5.182-4.726-10.29-10.167-15.33-16.327l10.5-5.146ZM45.885,309.783h13.23v48.194h-13.23v-48.194Z"/>
    <path d="M111.152,340.233c3.71-1.539,8.207-3.64,13.493-6.301,5.284-2.659,10.587-5.389,15.907-8.189l3.675,11.13c-4.69,2.729-9.502,5.513-14.438,8.347-4.935,2.836-9.573,5.373-13.912,7.613l-4.726-12.6ZM112.098,291.932h29.19v11.971h-29.19v-11.971ZM121.548,268.307h11.76v70.455h-11.76v-70.455ZM139.713,342.438c3.079-.561,6.597-1.261,10.552-2.101,3.954-.84,8.138-1.767,12.548-2.782,4.41-1.014,8.82-2.012,13.23-2.992l1.154,10.395c-5.88,1.68-11.864,3.308-17.955,4.883-6.09,1.574-11.62,3.028-16.59,4.357l-2.939-11.76ZM142.968,281.328h66.149v11.444h-66.149v-11.444ZM146.013,299.703h26.985v32.235h-26.985v-32.235ZM155.253,309.362v12.916h7.979v-12.916h-7.979ZM196.413,299.703l11.234,1.995c-3.221,14.07-7.928,26.443-14.122,37.117-6.195,10.676-13.949,19.336-23.258,25.987-.562-.7-1.401-1.559-2.52-2.572-1.121-1.016-2.258-2.013-3.413-2.993s-2.188-1.784-3.098-2.414c9.24-5.81,16.729-13.598,22.471-23.363,5.738-9.765,9.975-21.016,12.705-33.757ZM176.357,266.942h12.075c-.141,7.001-.105,14.002.105,21,.21,7.001.559,13.739,1.05,20.213.488,6.476,1.103,12.461,1.837,17.955.735,5.496,1.575,10.309,2.521,14.438.944,4.131,1.959,7.35,3.045,9.66,1.084,2.311,2.187,3.465,3.308,3.465.77,0,1.365-1.031,1.785-3.098.42-2.063.698-5.441.84-10.133,1.189,1.401,2.572,2.73,4.147,3.99s3.026,2.241,4.357,2.94c-.562,4.62-1.331,8.261-2.311,10.92-.98,2.659-2.293,4.515-3.938,5.565-1.646,1.049-3.832,1.574-6.562,1.574-3.01,0-5.653-1.312-7.927-3.938-2.275-2.625-4.236-6.316-5.88-11.077-1.646-4.76-3.011-10.29-4.096-16.59-1.086-6.3-1.926-13.125-2.52-20.476-.596-7.35-1.034-14.962-1.312-22.837-.28-7.875-.456-15.732-.525-23.573ZM190.322,273.033l7.141-6.091c2.029,1.401,4.164,3.063,6.404,4.988,2.24,1.926,3.954,3.658,5.146,5.197l-7.35,6.825c-1.191-1.539-2.871-3.343-5.04-5.407-2.171-2.064-4.271-3.902-6.301-5.513Z"/>
    <path d="M239.914,277.653h11.971v11.654c0,2.661-.352,5.513-1.05,8.558-.701,3.045-1.927,6.126-3.676,9.24-1.75,3.115-4.305,6.126-7.665,9.03-3.359,2.905-7.701,5.582-13.02,8.032-.771-1.261-1.942-2.729-3.518-4.41-1.575-1.68-3.063-3.009-4.463-3.989,4.97-1.891,8.89-3.973,11.761-6.248,2.869-2.273,4.987-4.62,6.353-7.035,1.364-2.415,2.257-4.777,2.677-7.088.42-2.31.63-4.41.63-6.3v-11.444ZM230.359,266.208l11.13,2.31c-1.26,4.69-3.045,9.171-5.354,13.44-2.311,4.271-4.796,7.84-7.455,10.71-.701-.56-1.664-1.224-2.888-1.995-1.226-.77-2.451-1.504-3.675-2.205-1.226-.699-2.328-1.26-3.308-1.68,2.729-2.521,5.093-5.6,7.088-9.24,1.994-3.639,3.48-7.419,4.462-11.34ZM219.755,291.408h48.3v9.87h-48.3v-9.87ZM232.145,274.817h33.39v9.766h-33.39v-9.766ZM233.93,320.913h68.774v44.415h-12.915v-34.546h-43.574v34.65h-12.285v-44.52ZM249.784,300.858c.979.42,2.345,1.12,4.096,2.1,1.748.98,3.586,2.013,5.512,3.098,1.925,1.086,3.728,2.1,5.408,3.045,1.68.945,2.869,1.697,3.569,2.258l-8.925,7.979c-1.05-.909-2.362-1.959-3.938-3.149-1.575-1.189-3.221-2.432-4.935-3.729-1.717-1.294-3.396-2.502-5.04-3.622-1.646-1.119-3.063-2.101-4.253-2.94l8.505-5.039ZM241.279,336.663h52.92v9.135h-52.92v-9.135ZM241.279,351.887h52.92v10.08h-52.92v-10.08ZM271.52,274.608h40.215v40.004h-40.215v-40.004ZM283.279,285.632v17.851h15.96v-17.851h-15.96Z"/>
    <path d="M328.219,299.807c-.21-.84-.561-1.977-1.05-3.412-.49-1.434-1.016-2.904-1.575-4.41-.561-1.504-1.086-2.816-1.574-3.938.84-.279,1.68-.77,2.52-1.47.84-.699,1.68-1.609,2.521-2.73.63-.698,1.504-1.925,2.625-3.675,1.118-1.749,2.326-3.814,3.622-6.195,1.295-2.379,2.397-4.83,3.308-7.35l13.44,3.465c-1.471,2.801-3.134,5.636-4.988,8.505-1.855,2.871-3.779,5.583-5.774,8.138-1.995,2.557-3.903,4.777-5.723,6.668v.209c-1.47.841-2.695,1.576-3.675,2.205-.981.631-1.838,1.312-2.573,2.048-.734.735-1.103,1.384-1.103,1.942ZM328.219,299.807l-.314-8.505,5.564-3.36,32.551-2.205c-.352,1.471-.648,3.15-.893,5.041-.246,1.89-.368,3.43-.368,4.619-5.811.491-10.728.929-14.752,1.312-4.026.386-7.334.719-9.923.998-2.59.28-4.638.543-6.143.787-1.506.246-2.695.473-3.569.683-.876.21-1.594.42-2.153.63ZM328.534,304.847h33.285v10.29h-21.63v50.295h-11.655v-60.585ZM333.784,320.703h29.19v9.345h-29.19v-9.345ZM333.784,336.137h29.19v9.346h-29.19v-9.346ZM355.834,304.847h12.495v47.88c0,2.73-.314,4.918-.945,6.562-.63,1.645-1.855,2.922-3.675,3.833-1.75.979-3.851,1.575-6.3,1.784-2.451.211-5.25.315-8.4.315-.28-1.68-.823-3.588-1.627-5.722-.806-2.137-1.628-3.938-2.468-5.408,1.891.07,3.744.105,5.565.105s3.045-.035,3.675-.105c.699,0,1.155-.105,1.365-.314.21-.211.314-.631.314-1.26v-47.671ZM351.004,277.338l10.71-3.99c1.609,2.311,3.22,4.866,4.83,7.665,1.609,2.801,3.062,5.531,4.357,8.19,1.295,2.661,2.222,5.11,2.783,7.35l-11.445,4.62c-.49-2.169-1.331-4.637-2.521-7.402-1.19-2.765-2.537-5.582-4.042-8.453-1.506-2.869-3.063-5.528-4.673-7.979ZM376.52,267.257h12.39v31.604c0,1.822.279,2.977.84,3.466.56.49,1.819.735,3.78.735h11.55c1.119,0,1.978-.264,2.572-.788s1.032-1.575,1.312-3.149c.279-1.576.489-3.902.63-6.983,1.261.981,2.993,1.908,5.198,2.782,2.205.877,4.147,1.488,5.827,1.838-.42,4.551-1.155,8.068-2.205,10.553-1.05,2.485-2.538,4.236-4.462,5.25-1.927,1.016-4.499,1.522-7.718,1.522h-14.49c-4.061,0-7.192-.454-9.397-1.365-2.205-.909-3.728-2.483-4.567-4.725-.84-2.239-1.26-5.25-1.26-9.03v-31.71ZM376.624,316.397h12.495v33.075c0,1.89.297,3.081.893,3.57.594.49,1.872.735,3.832.735h11.865c1.26,0,2.205-.315,2.835-.945s1.085-1.854,1.365-3.676c.279-1.818.489-4.514.63-8.084,1.329.98,3.08,1.908,5.25,2.782,2.169.876,4.13,1.522,5.88,1.942-.42,4.9-1.154,8.732-2.205,11.498-1.05,2.764-2.556,4.707-4.515,5.827-1.961,1.118-4.656,1.68-8.085,1.68h-14.805c-4.061,0-7.211-.472-9.45-1.417-2.241-.945-3.798-2.521-4.673-4.726-.876-2.204-1.312-5.231-1.312-9.082v-33.181ZM408.859,320.703l8.295,9.239c-3.15,1.751-6.615,3.379-10.396,4.883-3.779,1.506-7.596,2.924-11.444,4.253-3.851,1.33-7.631,2.52-11.34,3.569-.281-1.189-.788-2.659-1.522-4.41-.735-1.748-1.454-3.219-2.153-4.409,3.43-1.119,6.895-2.415,10.396-3.886,3.499-1.47,6.825-2.992,9.975-4.566,3.15-1.576,5.88-3.133,8.19-4.673ZM408.124,273.453l7.98,9.239c-3.15,1.471-6.528,2.888-10.133,4.253-3.606,1.365-7.263,2.644-10.973,3.833-3.711,1.19-7.315,2.24-10.814,3.149-.281-1.189-.788-2.625-1.522-4.305-.735-1.681-1.418-3.114-2.048-4.306,3.219-1.05,6.51-2.221,9.87-3.518,3.359-1.294,6.562-2.677,9.607-4.146,3.045-1.471,5.723-2.87,8.032-4.2Z"/>
  </g>
  <g>
    <path d="M20.232,416.138c-3.4,0-6.417-.766-9.05-2.3-2.633-1.532-4.692-3.666-6.175-6.399-1.483-2.733-2.225-5.851-2.225-9.351,0-3.566.742-6.708,2.225-9.425,1.483-2.717,3.525-4.85,6.125-6.4,2.6-1.55,5.6-2.324,9-2.324s6.4.774,9,2.324c2.6,1.551,4.633,3.684,6.1,6.4s2.201,5.842,2.201,9.375-.734,6.667-2.201,9.4-3.492,4.867-6.074,6.399c-2.584,1.534-5.559,2.3-8.925,2.3ZM20.282,411.638c2.367,0,4.466-.582,6.301-1.75,1.832-1.166,3.266-2.766,4.299-4.8,1.033-2.032,1.551-4.383,1.551-7.05,0-2.633-.525-4.975-1.576-7.025-1.049-2.05-2.5-3.657-4.35-4.824s-3.975-1.75-6.375-1.75-4.534.583-6.4,1.75c-1.867,1.167-3.325,2.774-4.375,4.824-1.05,2.051-1.575,4.393-1.575,7.025,0,2.667.533,5.018,1.6,7.05,1.066,2.034,2.542,3.634,4.425,4.8,1.883,1.168,4.042,1.75,6.475,1.75Z"/>
    <path d="M44.471,415.539v-25h4.45l.2,3.45c.8-1.333,1.8-2.342,3-3.025,1.2-.683,2.583-1.024,4.149-1.024,2,0,3.7.458,5.101,1.375,1.399.917,2.416,2.309,3.05,4.175.732-1.8,1.767-3.175,3.1-4.125s2.917-1.425,4.75-1.425c2.833,0,5.051.925,6.65,2.774,1.6,1.851,2.383,4.692,2.35,8.525v14.3h-4.699v-12.8c0-2.267-.242-3.991-.726-5.175s-1.125-2.008-1.925-2.476c-.8-.466-1.733-.716-2.8-.75-1.867,0-3.309.718-4.325,2.15-1.018,1.434-1.525,3.45-1.525,6.05v13h-4.75v-12.8c0-2.267-.233-3.991-.699-5.175-.468-1.184-1.109-2.008-1.926-2.476-.816-.466-1.758-.716-2.824-.75-1.867,0-3.309.718-4.325,2.15-1.018,1.434-1.525,3.45-1.525,6.05v13h-4.75Z"/>
    <path d="M88.75,415.539v-25h4.45l.2,3.65c.833-1.367,1.907-2.417,3.225-3.15,1.316-.732,2.825-1.1,4.525-1.1,1.966,0,3.675.399,5.125,1.199,1.45.801,2.566,2.043,3.35,3.726.783,1.684,1.175,3.892,1.175,6.625v14.05h-4.75v-12.8c0-2.267-.258-3.991-.774-5.175-.518-1.184-1.233-2.008-2.15-2.476-.917-.466-1.975-.716-3.175-.75-2.033,0-3.617.718-4.75,2.15-1.134,1.434-1.7,3.45-1.7,6.05v13h-4.75Z"/>
    <path d="M120.72,385.239c-.768,0-1.434-.292-2-.875-.567-.583-.85-1.258-.85-2.025,0-.8.282-1.475.85-2.024.566-.551,1.232-.825,2-.825.8,0,1.475.274,2.025.825s.824,1.225.824,2.024c0,.768-.274,1.442-.824,2.025-.551.583-1.226.875-2.025.875ZM118.32,415.539v-25h4.75v25h-4.75Z"/>
    <path d="M129.985,402.739v-4.15h15v4.15h-15Z"/>
    <path d="M153.37,415.539v-35h4.899v35h-4.899Z"/>
    <path d="M167.018,415.539v-25h4.45l.2,3.65c.833-1.367,1.907-2.417,3.225-3.15,1.316-.732,2.825-1.1,4.525-1.1,1.966,0,3.675.399,5.125,1.199,1.45.801,2.566,2.043,3.35,3.726.783,1.684,1.175,3.892,1.175,6.625v14.05h-4.75v-12.8c0-2.267-.258-3.991-.774-5.175-.518-1.184-1.233-2.008-2.15-2.476-.917-.466-1.975-.716-3.175-.75-2.033,0-3.617.718-4.75,2.15-1.134,1.434-1.7,3.45-1.7,6.05v13h-4.75Z"/>
    <path d="M205.659,416.138c-2.5,0-4.434-.641-5.8-1.925-1.367-1.282-2.051-3.125-2.051-5.524v-14.051h-4.25v-4.1h4.25v-7.8h4.75v7.8h7.101v4.1h-7.101v13.351c0,1.233.309,2.175.926,2.825.616.649,1.508.975,2.675.975.333,0,.7-.066,1.1-.2.4-.133.883-.399,1.45-.8l1.8,3.7c-.867.567-1.692.983-2.475,1.25-.784.267-1.575.399-2.375.399Z"/>
    <path d="M226.292,416.138c-2.434,0-4.583-.559-6.449-1.675-1.867-1.116-3.334-2.657-4.4-4.625-1.067-1.966-1.6-4.232-1.6-6.8s.532-4.833,1.6-6.8c1.066-1.967,2.541-3.508,4.425-4.625,1.883-1.116,4.042-1.675,6.476-1.675,2.3,0,4.316.574,6.05,1.725,1.732,1.15,3.091,2.783,4.075,4.9.982,2.117,1.475,4.608,1.475,7.475h-19.25c.166,2.467.991,4.393,2.475,5.775s3.309,2.074,5.476,2.074c1.666,0,3.058-.391,4.175-1.175,1.116-.782,1.991-1.774,2.625-2.975l4.1,1.899c-.667,1.301-1.533,2.442-2.6,3.426-1.067.983-2.325,1.742-3.775,2.274-1.449.533-3.074.8-4.875.8ZM218.993,400.289h13.851c-.101-1.333-.459-2.458-1.075-3.375-.617-.916-1.4-1.625-2.351-2.125-.949-.5-2.008-.75-3.175-.75-1.134,0-2.233.242-3.3.725-1.067.484-1.959,1.192-2.675,2.125-.718.934-1.143,2.067-1.275,3.4Z"/>
    <path d="M244.147,415.539v-35h4.75v35h-4.75Z"/>
    <path d="M256.691,415.539v-35h4.75v35h-4.75Z"/>
    <path d="M271.781,385.239c-.768,0-1.434-.292-2-.875-.567-.583-.85-1.258-.85-2.025,0-.8.282-1.475.85-2.024.566-.551,1.232-.825,2-.825.8,0,1.475.274,2.025.825s.824,1.225.824,2.024c0,.768-.274,1.442-.824,2.025-.551.583-1.226.875-2.025.875ZM269.38,415.539v-25h4.75v25h-4.75Z"/>
    <path d="M292.471,426.189c-1.668,0-3.184-.159-4.551-.476-1.367-.317-2.517-.675-3.449-1.075-.934-.399-1.634-.75-2.101-1.05l1.8-3.85c.434.267,1.051.575,1.851.925s1.732.65,2.8.9c1.066.25,2.25.375,3.55.375,1.533,0,2.9-.309,4.101-.926,1.199-.617,2.141-1.574,2.824-2.875.684-1.3,1.025-2.966,1.025-5v-2.6c-.867,1.467-2.018,2.608-3.45,3.425-1.434.817-3.05,1.226-4.85,1.226-2.268,0-4.242-.525-5.925-1.575-1.684-1.05-3-2.517-3.95-4.4-.95-1.883-1.425-4.058-1.425-6.524,0-2.566.475-4.801,1.425-6.7.95-1.9,2.267-3.383,3.95-4.45,1.683-1.066,3.657-1.6,5.925-1.6,1.8,0,3.416.408,4.85,1.225,1.433.817,2.583,1.992,3.45,3.525v-4.15h4.75v22.5c0,2.866-.542,5.275-1.625,7.225-1.084,1.95-2.567,3.426-4.45,4.426-1.884,1-4.059,1.5-6.524,1.5ZM293.221,411.189c1.399,0,2.616-.375,3.649-1.125s1.851-1.767,2.45-3.051c.6-1.282.9-2.758.9-4.425s-.301-3.133-.9-4.399-1.425-2.258-2.475-2.976c-1.051-.716-2.275-1.075-3.676-1.075-1.467,0-2.758.359-3.875,1.075-1.117.718-1.992,1.709-2.625,2.976s-.949,2.733-.949,4.399.324,3.143.975,4.425c.65,1.284,1.533,2.301,2.65,3.051,1.116.75,2.407,1.125,3.875,1.125Z"/>
    <path d="M323.985,416.138c-2.434,0-4.583-.559-6.449-1.675-1.867-1.116-3.334-2.657-4.4-4.625-1.067-1.966-1.6-4.232-1.6-6.8s.532-4.833,1.6-6.8c1.066-1.967,2.541-3.508,4.425-4.625,1.883-1.116,4.042-1.675,6.476-1.675,2.3,0,4.316.574,6.05,1.725,1.732,1.15,3.091,2.783,4.075,4.9.982,2.117,1.475,4.608,1.475,7.475h-19.25c.166,2.467.991,4.393,2.475,5.775s3.309,2.074,5.476,2.074c1.666,0,3.058-.391,4.175-1.175,1.116-.782,1.991-1.774,2.625-2.975l4.1,1.899c-.667,1.301-1.533,2.442-2.6,3.426-1.067.983-2.325,1.742-3.775,2.274-1.449.533-3.074.8-4.875.8ZM316.685,400.289h13.851c-.101-1.333-.459-2.458-1.075-3.375-.617-.916-1.4-1.625-2.351-2.125-.949-.5-2.008-.75-3.175-.75-1.134,0-2.233.242-3.3.725-1.067.484-1.959,1.192-2.675,2.125-.718.934-1.143,2.067-1.275,3.4Z"/>
    <path d="M341.779,415.539v-25h4.45l.2,3.65c.833-1.367,1.907-2.417,3.225-3.15,1.316-.732,2.825-1.1,4.525-1.1,1.966,0,3.675.399,5.125,1.199,1.45.801,2.566,2.043,3.35,3.726.783,1.684,1.175,3.892,1.175,6.625v14.05h-4.75v-12.8c0-2.267-.258-3.991-.774-5.175-.518-1.184-1.233-2.008-2.15-2.476-.917-.466-1.975-.716-3.175-.75-2.033,0-3.617.718-4.75,2.15-1.134,1.434-1.7,3.45-1.7,6.05v13h-4.75Z"/>
    <path d="M382.634,416.138c-2.5,0-4.718-.559-6.65-1.675-1.934-1.116-3.442-2.657-4.524-4.625-1.084-1.966-1.625-4.232-1.625-6.8s.541-4.833,1.625-6.8c1.082-1.967,2.582-3.508,4.5-4.625,1.916-1.116,4.107-1.675,6.574-1.675,2.434,0,4.625.566,6.575,1.699,1.95,1.134,3.408,2.75,4.375,4.851l-4.3,1.8c-.634-1.232-1.542-2.2-2.725-2.9-1.184-.699-2.543-1.05-4.075-1.05-1.5,0-2.834.367-4,1.101-1.167.733-2.084,1.758-2.75,3.074-.667,1.317-1,2.825-1,4.525s.333,3.2,1,4.5c.666,1.3,1.6,2.325,2.8,3.075s2.55,1.125,4.05,1.125c1.533,0,2.9-.392,4.101-1.175,1.199-.783,2.1-1.842,2.699-3.176l4.351,1.75c-.968,2.2-2.425,3.918-4.375,5.15-1.95,1.233-4.159,1.85-6.625,1.85Z"/>
    <path d="M410.403,416.138c-2.434,0-4.583-.559-6.449-1.675-1.867-1.116-3.334-2.657-4.4-4.625-1.067-1.966-1.6-4.232-1.6-6.8s.532-4.833,1.6-6.8c1.066-1.967,2.541-3.508,4.425-4.625,1.883-1.116,4.042-1.675,6.476-1.675,2.3,0,4.316.574,6.05,1.725,1.732,1.15,3.091,2.783,4.075,4.9.983,2.117,1.475,4.608,1.475,7.475h-19.25c.166,2.467.991,4.393,2.475,5.775s3.309,2.074,5.476,2.074c1.666,0,3.058-.391,4.175-1.175,1.116-.782,1.991-1.774,2.625-2.975l4.1,1.899c-.667,1.301-1.534,2.442-2.6,3.426-1.067.983-2.325,1.742-3.775,2.274-1.449.533-3.074.8-4.875.8ZM403.103,400.289h13.851c-.101-1.333-.459-2.458-1.075-3.375-.617-.916-1.4-1.625-2.351-2.125-.949-.5-2.008-.75-3.175-.75-1.134,0-2.233.242-3.3.725-1.067.484-1.959,1.192-2.675,2.125-.718.934-1.143,2.067-1.275,3.4Z"/>
  </g>
</svg>